<svg width="16" height="16" viewBox="0 0 16 16" fill="none" xmlns="http://www.w3.org/2000/svg">
<path d="M8.13326 11.5869C7.66659 11.5869 7.19326 11.4069 6.83993 11.0536C6.49326 10.7069 6.29993 10.247 6.29993 9.76029C6.29993 9.27362 6.49326 8.80695 6.83993 8.46695L7.77991 7.52695C7.97324 7.33362 8.29324 7.33362 8.48657 7.52695C8.67991 7.72028 8.67991 8.04028 8.48657 8.23361L7.54659 9.17362C7.38659 9.33362 7.29993 9.54029 7.29993 9.76029C7.29993 9.98029 7.38659 10.1936 7.54659 10.3469C7.87326 10.6736 8.39994 10.6736 8.7266 10.3469L10.2066 8.86693C11.0533 8.02027 11.0533 6.64695 10.2066 5.80028C9.35992 4.95362 7.9866 4.95362 7.13993 5.80028L5.52657 7.41361C5.18657 7.75361 4.99992 8.20028 4.99992 8.67362C4.99992 9.14695 5.18657 9.60027 5.52657 9.93361C5.7199 10.1269 5.7199 10.4469 5.52657 10.6403C5.33324 10.8336 5.01324 10.8336 4.81991 10.6403C4.29324 10.1136 4.00659 9.41361 4.00659 8.66694C4.00659 7.92028 4.29324 7.22028 4.81991 6.69362L6.43327 5.08027C7.6666 3.84694 9.67992 3.84694 10.9132 5.08027C12.1466 6.31361 12.1466 8.32694 10.9132 9.56027L9.43327 11.0403C9.07327 11.4069 8.60659 11.5869 8.13326 11.5869Z" fill="#1E376C"/>
<path d="M9.99992 15.1663H5.99992C2.37992 15.1663 0.833252 13.6197 0.833252 9.99967V5.99967C0.833252 2.37967 2.37992 0.833008 5.99992 0.833008H9.99992C13.6199 0.833008 15.1666 2.37967 15.1666 5.99967V9.99967C15.1666 13.6197 13.6199 15.1663 9.99992 15.1663ZM5.99992 1.83301C2.92659 1.83301 1.83325 2.92634 1.83325 5.99967V9.99967C1.83325 13.073 2.92659 14.1663 5.99992 14.1663H9.99992C13.0733 14.1663 14.1666 13.073 14.1666 9.99967V5.99967C14.1666 2.92634 13.0733 1.83301 9.99992 1.83301H5.99992Z" fill="#1E376C"/>
</svg>
