<svg width="16" height="16" viewBox="0 0 16 16" fill="none" xmlns="http://www.w3.org/2000/svg">
<path d="M6.00008 7.16667C4.98675 7.16667 4.16675 6.34667 4.16675 5.33333C4.16675 4.32 4.98675 3.5 6.00008 3.5C7.01342 3.5 7.83342 4.32 7.83342 5.33333C7.83342 6.34667 7.01342 7.16667 6.00008 7.16667ZM6.00008 4.5C5.54008 4.5 5.16675 4.87333 5.16675 5.33333C5.16675 5.79333 5.54008 6.16667 6.00008 6.16667C6.46008 6.16667 6.83342 5.79333 6.83342 5.33333C6.83342 4.87333 6.46008 4.5 6.00008 4.5Z" fill="#1E376C"/>
<path d="M9.99992 15.1663H5.99992C2.37992 15.1663 0.833252 13.6197 0.833252 9.99967V5.99967C0.833252 2.37967 2.37992 0.833008 5.99992 0.833008H8.66659C8.93992 0.833008 9.16659 1.05967 9.16659 1.33301C9.16659 1.60634 8.93992 1.83301 8.66659 1.83301H5.99992C2.92659 1.83301 1.83325 2.92634 1.83325 5.99967V9.99967C1.83325 13.073 2.92659 14.1663 5.99992 14.1663H9.99992C13.0733 14.1663 14.1666 13.073 14.1666 9.99967V6.66634C14.1666 6.39301 14.3933 6.16634 14.6666 6.16634C14.9399 6.16634 15.1666 6.39301 15.1666 6.66634V9.99967C15.1666 13.6197 13.6199 15.1663 9.99992 15.1663Z" fill="#1E376C"/>
<path d="M12 5.83297C11.7267 5.83297 11.5 5.6063 11.5 5.33297V1.33297C11.5 1.13297 11.62 0.946301 11.8067 0.872967C11.9933 0.799634 12.2067 0.839634 12.3533 0.979634L13.6867 2.31297C13.88 2.5063 13.88 2.8263 13.6867 3.01963C13.4933 3.21297 13.1733 3.21297 12.98 3.01963L12.5 2.53963V5.33297C12.5 5.6063 12.2733 5.83297 12 5.83297Z" fill="#1E376C"/>
<path d="M10.6665 3.16663C10.5399 3.16663 10.4132 3.11996 10.3132 3.01996C10.1199 2.82663 10.1199 2.50663 10.3132 2.31329L11.6465 0.979961C11.8399 0.786628 12.1599 0.786628 12.3532 0.979961C12.5465 1.17329 12.5465 1.49329 12.3532 1.68663L11.0199 3.01996C10.9199 3.11996 10.7932 3.16663 10.6665 3.16663Z" fill="#1E376C"/>
<path d="M1.78003 13.133C1.62003 13.133 1.46003 13.053 1.3667 12.913C1.21337 12.6864 1.27337 12.373 1.50003 12.2197L4.7867 10.013C5.5067 9.53305 6.50003 9.58638 7.15337 10.1397L7.37337 10.333C7.7067 10.6197 8.27337 10.6197 8.60003 10.333L11.3734 7.95305C12.08 7.34638 13.1934 7.34638 13.9067 7.95305L14.9934 8.88638C15.2 9.06638 15.2267 9.37971 15.0467 9.59305C14.8667 9.79971 14.5467 9.82638 14.34 9.64638L13.2534 8.71305C12.92 8.42638 12.36 8.42638 12.0267 8.71305L9.25337 11.093C8.5467 11.6997 7.43337 11.6997 6.72003 11.093L6.50003 10.8997C6.19337 10.6397 5.6867 10.613 5.3467 10.8464L2.0667 13.053C1.97337 13.1064 1.87337 13.133 1.78003 13.133Z" fill="#1E376C"/>
</svg>
