<svg width="16" height="16" viewBox="0 0 16 16" fill="none" xmlns="http://www.w3.org/2000/svg">
<path d="M7.99992 10.833C6.25325 10.833 4.83325 9.41301 4.83325 7.66634V3.99967C4.83325 2.25301 6.25325 0.833008 7.99992 0.833008C9.74659 0.833008 11.1666 2.25301 11.1666 3.99967V7.66634C11.1666 9.41301 9.74659 10.833 7.99992 10.833ZM7.99992 1.83301C6.80659 1.83301 5.83325 2.80634 5.83325 3.99967V7.66634C5.83325 8.85967 6.80659 9.83301 7.99992 9.83301C9.19325 9.83301 10.1666 8.85967 10.1666 7.66634V3.99967C10.1666 2.80634 9.19325 1.83301 7.99992 1.83301Z" fill="#1E376C"/>
<path d="M7.9999 13.1669C4.91324 13.1669 2.3999 10.6536 2.3999 7.56693V6.43359C2.3999 6.16026 2.62657 5.93359 2.8999 5.93359C3.17324 5.93359 3.3999 6.16026 3.3999 6.43359V7.56693C3.3999 10.1003 5.46657 12.1669 7.9999 12.1669C10.5332 12.1669 12.5999 10.1003 12.5999 7.56693V6.43359C12.5999 6.16026 12.8266 5.93359 13.0999 5.93359C13.3732 5.93359 13.5999 6.16026 13.5999 6.43359V7.56693C13.5999 10.6536 11.0866 13.1669 7.9999 13.1669Z" fill="#1E376C"/>
<path d="M8.92667 4.78655C8.87333 4.78655 8.81333 4.77988 8.75333 4.75988C8.26667 4.57988 7.73333 4.57988 7.24667 4.75988C6.98667 4.85322 6.7 4.71988 6.60667 4.45988C6.51333 4.19988 6.64667 3.91322 6.90667 3.81988C7.61333 3.56655 8.39333 3.56655 9.1 3.81988C9.36 3.91322 9.49333 4.19988 9.4 4.45988C9.32 4.65988 9.12667 4.78655 8.92667 4.78655Z" fill="#1E376C"/>
<path d="M8.5333 6.19988C8.48664 6.19988 8.44664 6.19322 8.39997 6.17988C8.1333 6.10655 7.85997 6.10655 7.5933 6.17988C7.32664 6.25322 7.0533 6.09322 6.97997 5.82655C6.90664 5.56655 7.06664 5.29322 7.3333 5.21988C7.76664 5.09988 8.2333 5.09988 8.66664 5.21988C8.9333 5.29322 9.0933 5.56655 9.01997 5.83322C8.95997 6.05322 8.7533 6.19988 8.5333 6.19988Z" fill="#1E376C"/>
<path d="M8 15.167C7.72667 15.167 7.5 14.9403 7.5 14.667V12.667C7.5 12.3937 7.72667 12.167 8 12.167C8.27333 12.167 8.5 12.3937 8.5 12.667V14.667C8.5 14.9403 8.27333 15.167 8 15.167Z" fill="#1E376C"/>
</svg>
