<svg width="16" height="16" viewBox="0 0 16 16" fill="none" xmlns="http://www.w3.org/2000/svg">
<path d="M6.52 14.4196C7.30666 14.4196 8.42 13.8662 9.3 11.2196L9.78 9.77956L11.22 9.29956C13.86 8.41956 14.4133 7.30623 14.4133 6.51956C14.4133 5.73956 13.86 4.61956 11.22 3.73289L5.56 1.84623C4.14666 1.37289 2.96666 1.51289 2.24 2.23289C1.51333 2.95289 1.37333 4.13956 1.84666 5.55289L3.73333 11.2129C4.62 13.8662 5.73333 14.4196 6.52 14.4196ZM10.9067 4.68623C12.76 5.30623 13.42 6.03956 13.42 6.51956C13.42 6.99956 12.76 7.73289 10.9067 8.34623L9.22666 8.90623C9.08 8.95289 8.96 9.07289 8.91333 9.21956L8.35333 10.8996C7.74 12.7529 7 13.4129 6.52 13.4129C6.04 13.4129 5.30666 12.7529 4.68666 10.8996L2.8 5.23956C2.46 4.21289 2.52 3.37289 2.95333 2.93956C3.38666 2.50623 4.22666 2.45289 5.24666 2.79289L10.9067 4.68623Z" fill="white"/>
<path d="M9.25997 9.59967C9.38663 9.59967 9.5133 9.55301 9.6133 9.45301C9.80663 9.25968 9.80663 8.93967 9.6133 8.74634L7.22663 6.35301C7.0333 6.15967 6.7133 6.15967 6.51997 6.35301C6.32663 6.54634 6.32663 6.86634 6.51997 7.05967L8.90663 9.45301C8.99997 9.55301 9.1333 9.59967 9.25997 9.59967Z" fill="white"/>
</svg>
